<?xml version="1.0" encoding="UTF-8"?>
<svg width="600" height="400" viewBox="0 0 600 400" xmlns="http://www.w3.org/2000/svg">
    <!-- Background Circle -->
    <circle cx="300" cy="200" r="150" fill="#f8f9fa" stroke="#0d6efd" stroke-width="2"/>
    
    <!-- Document Stack -->
    <g transform="translate(250, 150)">
        <!-- Base Document -->
        <rect x="0" y="0" width="100" height="140" rx="5" fill="white" stroke="#0d6efd" stroke-width="2"/>
        <line x1="20" y1="30" x2="80" y2="30" stroke="#0d6efd" stroke-width="2"/>
        <line x1="20" y1="50" x2="80" y2="50" stroke="#0d6efd" stroke-width="2"/>
        <line x1="20" y1="70" x2="80" y2="70" stroke="#0d6efd" stroke-width="2"/>
        <line x1="20" y1="90" x2="60" y2="90" stroke="#0d6efd" stroke-width="2"/>
        
        <!-- Top Document (slightly offset) -->
        <rect x="-5" y="-5" width="100" height="140" rx="5" fill="white" stroke="#0d6efd" stroke-width="2"/>
        <line x1="15" y1="25" x2="75" y2="25" stroke="#0d6efd" stroke-width="2"/>
        <line x1="15" y1="45" x2="75" y2="45" stroke="#0d6efd" stroke-width="2"/>
        <line x1="15" y1="65" x2="75" y2="65" stroke="#0d6efd" stroke-width="2"/>
        <line x1="15" y1="85" x2="55" y2="85" stroke="#0d6efd" stroke-width="2"/>
    </g>
    
    <!-- Sharing Arrows -->
    <g transform="translate(300, 200)">
        <!-- Left Arrow -->
        <path d="M-100,0 L-80,-20 L-80,20 Z" fill="#0d6efd"/>
        <line x1="-100" y1="0" x2="-120" y2="0" stroke="#0d6efd" stroke-width="2"/>
        
        <!-- Right Arrow -->
        <path d="M100,0 L80,-20 L80,20 Z" fill="#0d6efd"/>
        <line x1="100" y1="0" x2="120" y2="0" stroke="#0d6efd" stroke-width="2"/>
    </g>
</svg> 